<svg id="Слой_1" data-name="Слой 1" xmlns="http://www.w3.org/2000/svg" xmlns:xlink="http://www.w3.org/1999/xlink" viewBox="0 0 389.15 202.93"><defs><style>.cls-1{fill:url(#Безымянный_градиент_15);}.cls-2{fill:url(#Безымянный_градиент_10);}.cls-3{fill:url(#Безымянный_градиент_10-2);}.cls-4{fill:url(#Безымянный_градиент_7);}.cls-5{fill:url(#Безымянный_градиент_9);}.cls-6{fill:url(#Безымянный_градиент_16);}.cls-7{fill:url(#Безымянный_градиент_16-2);}.cls-8{fill:url(#Безымянный_градиент_16-3);}.cls-9{fill:url(#Безымянный_градиент_16-4);}.cls-10{fill:url(#Безымянный_градиент_16-5);}.cls-11{fill:url(#Безымянный_градиент_9-2);}</style><linearGradient id="Безымянный_градиент_15" x1="218.26" y1="-14.66" x2="193.91" y2="27.52" gradientUnits="userSpaceOnUse"><stop offset="0.15" stop-color="#d1d3d4"/><stop offset="0.25" stop-color="#c3c5c6"/><stop offset="0.4" stop-color="#b3b5b7"/><stop offset="0.58" stop-color="#aaacaf"/><stop offset="0.82" stop-color="#a7a9ac"/></linearGradient><linearGradient id="Безымянный_градиент_10" x1="568.05" y1="430.02" x2="568.05" y2="411.59" gradientUnits="userSpaceOnUse"><stop offset="0.31" stop-color="#fff"/><stop offset="1" stop-color="#a7a9ac"/></linearGradient><linearGradient id="Безымянный_градиент_10-2" x1="255.33" y1="430.02" x2="255.33" y2="412.76" xlink:href="#Безымянный_градиент_10"/><linearGradient id="Безымянный_градиент_7" x1="315" y1="426.42" x2="315" y2="356.63" gradientUnits="userSpaceOnUse"><stop offset="0.31" stop-color="#fff"/><stop offset="0.82" stop-color="#a7a9ac"/></linearGradient><linearGradient id="Безымянный_градиент_9" x1="509.24" y1="427.01" x2="509.24" y2="356.05" xlink:href="#Безымянный_градиент_7"/><linearGradient id="Безымянный_градиент_16" x1="228.23" y1="498.07" x2="228.23" y2="459.48" gradientUnits="userSpaceOnUse"><stop offset="0.18" stop-color="#a7a9ac"/><stop offset="0.69" stop-color="#fff"/></linearGradient><linearGradient id="Безымянный_градиент_16-2" x1="319.91" y1="498.07" x2="319.91" y2="459.48" xlink:href="#Безымянный_градиент_16"/><linearGradient id="Безымянный_градиент_16-3" x1="412.55" y1="498.07" x2="412.55" y2="459.48" xlink:href="#Безымянный_градиент_16"/><linearGradient id="Безымянный_градиент_16-4" x1="496.42" y1="498.07" x2="496.42" y2="459.48" xlink:href="#Безымянный_градиент_16"/><linearGradient id="Безымянный_градиент_16-5" x1="582.86" y1="498.07" x2="582.86" y2="459.48" xlink:href="#Безымянный_градиент_16"/><linearGradient id="Безымянный_градиент_9-2" x1="417.21" y1="430.17" x2="417.21" y2="330.99" xlink:href="#Безымянный_градиент_7"/></defs><title>Tevin (без фона)</title><polygon class="cls-1" points="185.24 12.86 185.24 9.53 226.93 9.53 226.93 12.86 243.65 12.86 243.65 9.53 243.65 0 216.56 0 195.62 0 168.52 0 168.52 9.53 168.52 12.86 185.24 12.86"/><path class="cls-2" d="M568.82,411.59L550.26,430h35.58Z" transform="translate(-211.41 -295.14)"/><path class="cls-3" d="M254.61,412.76L238.66,430H272Z" transform="translate(-211.41 -295.14)"/><path class="cls-4" d="M295.71,356.63l-23.52,25.46,41.17,44.33h44.45C337.49,405,312,374.28,295.71,356.63Z" transform="translate(-211.41 -295.14)"/><path class="cls-5" d="M552.6,381.5L529.08,356c-16.6,18-42.72,49.52-63.2,71h44.47Z" transform="translate(-211.41 -295.14)"/><path class="cls-6" d="M223.76,466.76H211.41v-7.28H245v7.28H232.69v31.31h-8.93V466.76Z" transform="translate(-211.41 -295.14)"/><path class="cls-7" d="M334.85,490.9v7.17H305V459.48h29.16v7.17H313.84V475h17.92V482H313.84v8.93h21Z" transform="translate(-211.41 -295.14)"/><path class="cls-8" d="M433.64,459.48l-16.71,38.59h-8.82l-16.65-38.59h9.65L412.85,487l11.91-27.56h8.88Z" transform="translate(-211.41 -295.14)"/><path class="cls-9" d="M492,459.48h8.93v38.59H492V459.48Z" transform="translate(-211.41 -295.14)"/><path class="cls-10" d="M600.56,459.48v38.59h-7.33L574,474.64v23.43h-8.82V459.48h7.39l19.19,23.43V459.48h8.82Z" transform="translate(-211.41 -295.14)"/><path class="cls-11" d="M324.14,331L413,430.17,510.29,331H324.14Zm82.58,63.63L374.26,356h18.81L416,383.6,439.19,356h17.3l-32.57,38.58h-17.2Z" transform="translate(-211.41 -295.14)"/></svg>